<svg width="16" height="16" fill="none" xmlns="http://www.w3.org/2000/svg"><path d="M8 2C4.688 2 2 4.688 2 8s2.688 6 6 6 6-2.688 6-6-2.688-6-6-6zm0 .6c1.056 0 2.04.318 2.868.846L10.7 3.8H8l-1.032-.504.21-.618c.27-.048.54-.078.822-.078zm-1.482.228l-.204.618-1.536.768-.75.15a5.41 5.41 0 012.49-1.536zM8.6 4.4h1.8l1.614 2.154-.75 1.542-1.578.372-1.968-2.304L8.6 4.4zm-4.104.396L5 6.8l-.732 1.836-1.536.528a5.324 5.324 0 01.822-4.218l.942-.15zm8.64 1.536c.174.522.264 1.086.264 1.668 0 .864-.222 1.674-.582 2.4H12.2l-.504-2.004.9-1.8.54-.264zM5.6 6.8h1.8l1.686 1.968L8 10.4l-1.896.468-1.386-1.854L5.6 6.8zM8 11l1.8 1.2-.522 1.032c-.414.096-.84.168-1.278.168-1.05 0-2.022-.3-2.85-.822l.696-1.032L8 11zm4.2 0h.3c-.6.9-1.5 1.602-2.514 2.004l.414-.804 1.8-1.2z" fill="#fff"/></svg>