<svg width="16" height="20" fill="none" xmlns="http://www.w3.org/2000/svg"><path d="M6.884 4.021v2.377H5.772V0H8.22c.715 0 1.281.186 1.7.558.422.372.633.864.633 1.477 0 .627-.206 1.114-.62 1.463-.41.349-.985.523-1.726.523H6.884zm0-.892H8.22c.395 0 .697-.092.905-.277.208-.187.312-.457.312-.809 0-.345-.105-.62-.316-.826-.211-.208-.501-.315-.87-.32H6.883v2.232zM8 7.398c-3.312 0-6 2.688-6 6s2.688 6 6 6 6-2.688 6-6-2.688-6-6-6zm0 .6c1.056 0 2.04.318 2.868.846l-.168.354H8l-1.032-.504.21-.618c.27-.048.54-.078.822-.078zm-1.482.228l-.204.618-1.536.768-.75.15a5.41 5.41 0 012.49-1.536zM8.6 9.798h1.8l1.614 2.154-.75 1.542-1.578.372-1.968-2.304.882-1.764zm-4.104.396L5 12.198l-.732 1.836-1.536.528a5.324 5.324 0 01.822-4.218l.942-.15zm8.64 1.536c.174.522.264 1.086.264 1.668 0 .864-.222 1.674-.582 2.4H12.2l-.504-2.004.9-1.8.54-.264zm-7.536.468h1.8l1.686 1.968L8 15.798l-1.896.468-1.386-1.854.882-2.214zm2.4 4.2l1.8 1.2-.522 1.032c-.414.096-.84.168-1.278.168-1.05 0-2.022-.3-2.85-.822l.696-1.032L8 16.398zm4.2 0h.3c-.6.9-1.5 1.602-2.514 2.004l.414-.804 1.8-1.2z" fill="#fff"/></svg>