<?xml version="1.0" encoding="utf-8"?>
<!-- Generator: Adobe Illustrator 23.1.1, SVG Export Plug-In . SVG Version: 6.00 Build 0)  -->
<svg version="1.1" id="Layer_1" xmlns="http://www.w3.org/2000/svg" xmlns:xlink="http://www.w3.org/1999/xlink" x="0px" y="0px"
	 viewBox="0 0 357 526" style="enable-background:new 0 0 357 526;" xml:space="preserve">
<style type="text/css">
	.st0{fill:#59741C;}
	.st1{fill:#4F6B0E;}
	.st2{fill:#9BAC77;}
</style>
<path class="st0" d="M0,0l0,525.3h357V0L0,0z"/>
<path class="st0" d="M9.8,9.7l0,505.8h337.2V9.7L9.8,9.7z"/>
<path class="st1" d="M9.8,485.8v29.6h337.2v-29.6H9.8z"/>
<path class="st1" d="M9.8,429.4v29.6h337.2v-29.6H9.8z"/>
<path class="st1" d="M9.8,373v29.6h337.2V373H9.8z"/>
<path class="st1" d="M9.8,316.5v29.6h337.2v-29.6H9.8z"/>
<path class="st1" d="M9.8,260.1v29.6h337.2v-29.6H9.8z"/>
<path class="st1" d="M9.8,203.7v29.6h337.2v-29.6L9.8,203.7z"/>
<path class="st1" d="M9.8,147.3v29.6h337.2v-29.6H9.8z"/>
<path class="st1" d="M9.8,90.8v29.6h337.2V90.8H9.8z"/>
<path class="st1" d="M9.8,34.4V64h337.2V34.4L9.8,34.4z"/>
<path class="st2" d="M277,8.5h-43.7h-26.7V3.6h-56.6v4.9h-26.5H79.8H8.6v508.1h71.3h43.7h26.4v4.9h56.6v-4.9h26.7H277h71.2V8.5H277z
	 M152.2,5.8h52.2v2.7h-52.2V5.8z M125.9,10.9h105v31.7h-105V10.9z M82.2,10.9h41.3v34h109.7v-34h41.3v75.5h-52.8h-86.9H82.2V10.9z
	 M217.3,88.8c-9.3,12-23.6,19.2-38.8,19.2s-29.6-7.2-38.8-19.2H217.3z M10.9,10.9h8.6c0,1.4-0.3,4-2,6.2c-1.5,1.8-3.7,2.9-6.6,3.3
	V10.9z M10.9,22.7c3.7-0.5,6.5-1.9,8.4-4.2c2.2-2.7,2.5-5.9,2.5-7.7h57.9v78h0.1h56.8c9.7,13.4,25.2,21.5,41.8,21.5
	c16.6,0,32.2-8,41.8-21.5h56.8V10.9h57.9c0,1.7,0.4,5,2.5,7.7c1.9,2.4,4.7,3.8,8.4,4.2v238.6h-116c-0.6-27.8-23.4-50.2-51.3-50.2
	c-27.9,0-50.7,22.4-51.3,50.2H10.9V22.7z M175.2,263.7c0.5,1.3,1.7,2.3,3.2,2.3c1.5,0,2.8-0.9,3.2-2.3h45.8
	c-0.6,26.5-22.3,47.9-49,47.9s-48.4-21.4-49-47.9H175.2z M129.3,261.4c0.6-26.5,22.3-47.9,49-47.9c26.7,0,48.4,21.4,49,47.9h-45.7
	c-0.5-1.3-1.7-2.2-3.2-2.2s-2.8,0.9-3.2,2.2H129.3z M10.9,514.3v-9.5c2.9,0.4,5.2,1.5,6.6,3.3c1.7,2.1,2,4.8,2,6.2H10.9z
	 M204.5,519.4h-52.2v-2.8h52.2V519.4z M230.9,514.3H125.9v-31.7h105.1V514.3z M274.6,514.3h-41.3v-34H123.5v34H82.2v-75.5h52.8h86.9
	h52.8V514.3z M139.5,436.4c9.3-12,23.6-19.2,38.8-19.2s29.6,7.2,38.8,19.2H139.5z M345.8,514.3h-8.6c0-1.4,0.3-4,2-6.2
	c1.5-1.8,3.7-2.9,6.6-3.3V514.3z M345.8,502.4c-3.8,0.5-6.6,1.9-8.5,4.2c-2.2,2.7-2.5,5.9-2.5,7.7h-57.9v-77.9h-56.8
	c-9.7-13.4-25.2-21.5-41.8-21.5c-16.6,0-32.2,8-41.8,21.5H79.8v77.8H21.9c0-1.8-0.4-5-2.5-7.7c-1.9-2.4-4.7-3.8-8.4-4.2V263.7h116.1
	c0.6,27.8,23.4,50.2,51.3,50.2c27.9,0,50.7-22.4,51.3-50.2h116.1V502.4z M345.8,20.4c-2.9-0.4-5.2-1.5-6.6-3.3c-1.7-2.1-2-4.8-2-6.2
	h8.7V20.4z"/>
</svg>
