<svg version="1.1" id="Layer_1" xmlns="http://www.w3.org/2000/svg" x="0" y="0" viewBox="0 0 357 526" xml:space="preserve"><defs>
        <style>
            @import url("https://fonts.googleapis.com/css?family=Roboto:400,400i,700,700i");
        </style>
    </defs><style>.st0{fill:#59741c}.st1{fill:#4f6b0e}</style><path class="st0" d="M0 0v525.3h357V0H0z"/><path class="st0" d="M9.8 9.7v505.8H347V9.7H9.8z"/><path class="st1" d="M9.8 485.8v29.6H347v-29.6H9.8zM9.8 429.4V459H347v-29.6H9.8zM9.8 373v29.6H347V373H9.8zM9.8 316.5v29.6H347v-29.6H9.8zM9.8 260.1v29.6H347v-29.6H9.8zM9.8 203.7v29.6H347v-29.6H9.8zM9.8 147.3v29.6H347v-29.6H9.8zM9.8 90.8v29.6H347V90.8H9.8zM9.8 34.4V64H347V34.4H9.8z"/><path d="M277 8.5h-70.4V3.6H150v4.9H8.6v508.1H150v4.9h56.6v-4.9H348.2V8.5H277zM152.2 5.8h52.2v2.7h-52.2V5.8zm-26.3 5.1h105v31.7h-105V10.9zm-43.7 0h41.3v34h109.7v-34h41.3v75.5H82.2V10.9zm135.1 77.9c-9.3 12-23.6 19.2-38.8 19.2s-29.6-7.2-38.8-19.2h77.6zM10.9 10.9h8.6c0 1.4-.3 4-2 6.2-1.5 1.8-3.7 2.9-6.6 3.3v-9.5zm0 11.8c3.7-.5 6.5-1.9 8.4-4.2 2.2-2.7 2.5-5.9 2.5-7.7h57.9v78h56.9c9.7 13.4 25.2 21.5 41.8 21.5 16.6 0 32.2-8 41.8-21.5H277V10.9h57.9c0 1.7.4 5 2.5 7.7 1.9 2.4 4.7 3.8 8.4 4.2v238.6h-116c-.6-27.8-23.4-50.2-51.3-50.2s-50.7 22.4-51.3 50.2H10.9V22.7zm164.3 241c.5 1.3 1.7 2.3 3.2 2.3 1.5 0 2.8-.9 3.2-2.3h45.8c-.6 26.5-22.3 47.9-49 47.9s-48.4-21.4-49-47.9h45.8zm-45.9-2.3c.6-26.5 22.3-47.9 49-47.9s48.4 21.4 49 47.9h-45.7c-.5-1.3-1.7-2.2-3.2-2.2s-2.8.9-3.2 2.2h-45.9zM10.9 514.3v-9.5c2.9.4 5.2 1.5 6.6 3.3 1.7 2.1 2 4.8 2 6.2h-8.6zm193.6 5.1h-52.2v-2.8h52.2v2.8zm26.4-5.1h-105v-31.7H231v31.7zm43.7 0h-41.3v-34H123.5v34H82.2v-75.5h192.5v75.5zm-135.1-77.9c9.3-12 23.6-19.2 38.8-19.2s29.6 7.2 38.8 19.2h-77.6zm206.3 77.9h-8.6c0-1.4.3-4 2-6.2 1.5-1.8 3.7-2.9 6.6-3.3v9.5zm0-11.9c-3.8.5-6.6 1.9-8.5 4.2-2.2 2.7-2.5 5.9-2.5 7.7h-57.9v-77.9h-56.8c-9.7-13.4-25.2-21.5-41.8-21.5-16.6 0-32.2 8-41.8 21.5H79.8v77.8H21.9c0-1.8-.4-5-2.5-7.7-1.9-2.4-4.7-3.8-8.4-4.2V263.7h116.1c.6 27.8 23.4 50.2 51.3 50.2s50.7-22.4 51.3-50.2h116.1v238.7zm0-482c-2.9-.4-5.2-1.5-6.6-3.3-1.7-2.1-2-4.8-2-6.2h8.7v9.5z" fill="#9bac77"/></svg>